# AST/ASF file generated using VICON BodyLanguage
# -----------------------------------------------
:version 1.10
:name VICON
:units
  mass 1.0
  length 0.45
  angle deg
:documentation
   .ast/.asf automatically generated from VICON data using
   VICON BodyBuilder and BodyLanguage model FoxedUp or BRILLIANT.MOD
:root
   order TX TY TZ RX RY RZ
   axis XYZ
   position 0 0 0  
   orientation 0 0 0 
:bonedata
  begin
     id 1 
     name lhipjoint
     direction 0.653368 -0.678499 0.335782 
     length 2.51848 
     axis 0 0 0  XYZ
  end
  begin
     id 2 
     name lfemur
     direction 0.34202 -0.939693 0  
     length 6.57749  
     axis 0 0 20  XYZ
    dof rx ry rz
    limits (-160.0 20.0)
           (-70.0 70.0)
           (-60.0 70.0)
  end
  begin
     id 3 
     name ltibia
     direction 0.34202 -0.939693 0   
     length 7.94618   
     axis 0 0 20   XYZ
    dof rx
    limits (-10.0 170.0)
  end
  begin
     id 4 
     name lfoot
     direction 0.0811271 -0.222895 0.971461   
     length 2.31339   
     axis -90 7.62852e-016 20   XYZ
    dof rx rz
    limits (-45.0 90.0)
           (-70.0 20.0)
  end
  begin
     id 5 
     name ltoes
     direction 1.53568e-011 -4.21885e-011 1   
     length 1.15935   
     axis -90 7.62852e-016 20   XYZ
    dof rx
    limits (-90.0 20.0)
  end
  begin
     id 6 
     name rhipjoint
     direction -0.640058 -0.688614 0.340788   
     length 2.48149  
     axis 0 0 0  XYZ 
  end
  begin
     id 7 
     name rfemur
     direction -0.34202 -0.939693 0   
     length 6.57875   
     axis 0 0 -20   XYZ
    dof rx ry rz
    limits (-160.0 20.0)
           (-70.0 70.0)
           (-70.0 60.0)
  end
  begin
     id 8 
     name rtibia
     direction -0.34202 -0.939693 0   
     length 7.977   
     axis 0 0 -20   XYZ
    dof rx
    limits (-10.0 170.0)
 end
 begin
     id 9 
     name rfoot
     direction -0.0979793 -0.269196 0.958089   
     length 2.19857  
     axis -90 -7.62852e-016 -20   XYZ
    dof rx rz
    limits (-45.0 90.0)
           (-20.0 70.0)
  end
  begin
     id 10 
     name rtoes
     direction -1.53556e-011 -4.21868e-011 1   
     length 1.09838   
     axis -90 -7.62852e-016 -20   XYZ
    dof rx
    limits (-90.0 20.0)
  end
  begin
     id 11 
     name lowerback
     direction 0.0149039 0.998517 -0.0523597   
     length 2.10809   
     axis 0 0 0   XYZ
    dof rx ry rz
    limits (-20.0 45.0)
           (-30.0 30.0)
           (-30.0 30.0)
  end
  begin
     id 12 
     name upperback
     direction -0.00882659 0.999418 -0.0329624   
     length 2.1102   
     axis 0 0 0   XYZ
    dof rx ry rz
    limits (-20.0 45.0)
           (-30.0 30.0)
           (-30.0 30.0)
  end
  begin
     id 13 
     name thorax
     direction -0.0165585 0.999826 -0.0085833   
     length 2.11039   
     axis 0 0 0   XYZ
    dof rx ry rz
    limits (-20.0 45.0)
           (-30.0 30.0)
           (-30.0 30.0)
  end
  begin
     id 14 
     name lowerneck
     direction -0.0130877 0.999911 0.00260353   
     length 1.73253   
     axis 0 0 0   XYZ
    dof rx ry rz
    limits (-20.0 45.0)
           (-30.0 30.0)
           (-30.0 30.0)
  end
  begin
     id 15 
     name upperneck
     direction -0.0348454 0.928205 -0.370435   
     length 1.66692   
     axis 0 0 0   XYZ
    dof rx ry rz
    limits (-20.0 45.0)
           (-30.0 30.0)
           (-30.0 30.0)
  end
  begin
     id 16
     name head
     direction -0.00807754 0.992494 -0.122026  
     length 1.72765  
     axis 0 0 0   XYZ
    dof rx ry rz
    limits (-20.0 45.0)
           (-30.0 30.0)
           (-30.0 30.0)
  end
  begin
     id 17 
     name lclavicle
     direction 0.987582 0.144023 0.0627671  
     length 3.49235  
     axis 0 0 0   XYZ
    dof ry rz
    limits (-20.0 10.0)
           (0.0 20.0)
  end
  begin
     id 18 
     name lhumerus
     direction 1 -4.48958e-011 -1.45183e-018   
     length 5.41917   
     axis 180 -30 -90   XYZ
    dof rx ry rz
    limits (-60.0 90.0)
           (-90.0 90.0)
           (-90.0 90.0)
  end
  begin
     id 19
     name lradius
     direction 1 -4.48999e-011 5.75106e-027   
     length 2.44373   
     axis 180 -30 -90   XYZ
    dof rx
    limits (-10.0 170.0)
  end
  begin
     id 20
     name lwrist
     direction 1 -4.48987e-011 1.53461e-026   
     length 1.22186   
     axis -1.09697e-014 90 90   XYZ
    dof ry
    limits (-180.0 0.0)
 end
  begin
     id 21 
     name lhand
     direction 1 -4.48881e-011 3.06923e-026   
     length 0.727502   
     axis -1.95843e-014 90 90   XYZ
    dof rx rz
    limits (-90.0 90.0)
           (-45.0 45.0)
  end
  begin
     id 22 
     name lfingers
     direction 1 -4.48907e-011 6.13845e-026   
     length 0.586531   
     axis -3.91686e-014 90 90   XYZ
    dof rx
    limits (0.0 90.0)
  end
  begin
     id 23
     name lthumb
     direction 0.707107 -6.3487e-011 0.707107   
     length 0.842145   
     axis -90 45 2.85299e-015   XYZ
    dof rx rz
    limits (-45.0 45.0)
           (-45.0 45.0)
  end
  begin
     id 24 
     name rclavicle
     direction -0.980998 0.169556 0.0943023   
     length 3.29272  
     axis 0 0 0   XYZ 
    dof ry rz
    limits (-10.0 20.0)
           (-20.0 0.0)
  end
  begin
     id 25 
     name rhumerus
     direction -1 -1.83355e-005 2.45537e-005  
     length 5.58976   
     axis 180 30 90   XYZ
    dof rx ry rz
    limits (-90.0 60.0)
           (-90.0 90.0)
           (-90.0 90.0)
  end
  begin
     id 26 
     name rradius
     direction -1 -4.48967e-011 5.97228e-027   
     length 2.4806   
     axis 180 30 90   XYZ
    dof rx
    limits (-10.0 170.0)
  end
  begin
     id 27 
     name rwrist
     direction -1 -4.48963e-011 1.53461e-026   
     length 1.2403   
     axis -1.09697e-014 -90 -90   XYZ
    dof ry
    limits (-180.0 0.0)
  end
  begin
     id 28
     name rhand
     direction -1 -4.48881e-011 3.06923e-026   
     length 0.816009   
     axis -1.95843e-014 -90 -90   XYZ
    dof rx rz
    limits (-90.0 90.0)
           (-45.0 45.0)
  end
  begin
     id 29
     name rfingers
     direction -1 -4.49018e-011 6.13845e-026   
     length 0.657887   
     axis -3.91686e-014 -90 -90   XYZ
    dof rx
    limits (0.0 90.0)
  end
  begin
     id 30
     name rthumb
     direction -0.707107 -6.34872e-011 0.707107   
     length 0.944599   
     axis -90 -45 -2.85299e-015   XYZ
    dof rx rz
    limits (-45.0 45.0)
           (-45.0 45.0)
  end
:hierarchy
  begin
    root lhipjoint rhipjoint lowerback
    lhipjoint lfemur
    lfemur ltibia
    ltibia lfoot
    lfoot ltoes
    rhipjoint rfemur
    rfemur rtibia
    rtibia rfoot
    rfoot rtoes
    lowerback upperback
    upperback thorax
    thorax lowerneck lclavicle rclavicle
    lowerneck upperneck
    upperneck head
    lclavicle lhumerus
    lhumerus lradius
    lradius lwrist
    lwrist lhand lthumb
    lhand lfingers
    rclavicle rhumerus
    rhumerus rradius
    rradius rwrist
    rwrist rhand rthumb
    rhand rfingers
  end

#!OML:ASF F:\VICON\USERDATA\INSTALL\rory3\rory3.ASF
:FULLY-SPECIFIED
:DEGREES
58
root -0.429837 16.1557 -4.54032 -157.718 -9.01217 181.203
lowerback -12.5866 -0.0170283 2.46531
upperback -4.8017 -0.973915 2.52523
thorax 2.03604 -0.737727 1.0916
lowerneck -12.8008 1.80832 -1.34657
upperneck 42.4848 -3.91916 1.66524
head 18.0658 -3.45012 -0.307219
rclavicle 2.68359e-015 2.8625e-014
rhumerus -44.2389 10.6244 -86.7946
rradius 14.6623
rwrist 3.22979
rhand 17.7293 2.69697
rfingers 7.12502
rthumb 42.4142 -21.7528
lclavicle 2.68359e-015 2.8625e-014
lhumerus -51.289 -12.8219 95.7489
lradius 19.1907
lwrist -2.19421
lhand 15.9751 25.6315
lfingers 7.12502
lthumb 40.7687 50.6209
rfemur -51.9072 3.425 32.1219
rtibia 46.5989
rfoot -46.6179 -31.1606
rtoes 44.346
lfemur -22.1227 13.1536 -27.0565
ltibia 45.5016
lfoot -39.1842 19.5021
ltoes -0.444267
59
root -0.430938 16.1625 -4.58075 -157.794 -8.81667 180.871
lowerback -12.0197 0.101969 2.31004
upperback -5.25595 -0.790567 2.34861
thorax 1.25448 -0.669056 1.02965
lowerneck -12.0446 1.93648 -1.02381
upperneck 42.6864 -3.93873 1.44541
head 17.9723 -3.50498 -0.47778
rclavicle 1.88845e-014 1.27222e-014
rhumerus -44.968 10.3087 -86.7502
rradius 14.7519
rwrist 3.59407
rhand 17.9144 2.95919
rfingers 7.12502
rthumb 42.5874 -21.4309
lclavicle 1.88845e-014 1.27222e-014
lhumerus -52.3056 -13.4206 96.2465
lradius 19.4671
lwrist -1.38732
lhand 15.7789 25.3137
lfingers 7.12502
lthumb 40.5843 50.3608
rfemur -51.7025 3.24891 31.8256
rtibia 46.7179
rfoot -46.286 -31.6921
rtoes 43.2528
lfemur -22.3577 14.5545 -27.6271
ltibia 46.7346
lfoot -38.4732 20.065
ltoes -0.596127
60
root -0.440822 16.1731 -4.6238 -157.749 -8.95856 180.928
lowerback -11.8653 0.138814 2.67509
upperback -5.70787 -0.821567 2.34108
thorax 0.695588 -0.723442 0.819282
lowerneck -10.9588 2.14231 -0.52628
upperneck 42.7023 -3.74334 0.978502
head 17.6651 -3.48148 -0.741043
rclavicle 9.64106e-015 -1.66979e-014
rhumerus -45.7948 10.6324 -87.0699
rradius 15.0279
rwrist 3.12326
rhand 17.953 2.85762
rfingers 7.12502
rthumb 42.6236 -21.52
lclavicle 9.64106e-015 -1.66979e-014
lhumerus -53.1762 -13.2263 96.1747
lradius 19.6812
lwrist -1.2751
lhand 15.8727 24.949
lfingers 7.12502
lthumb 40.6724 49.9686
rfemur -51.5974 1.99826 32.475
rtibia 46.7685
rfoot -45.0411 -31.9236
rtoes 43.6252
lfemur -22.7369 15.7337 -27.7187
ltibia 48.0005
lfoot -37.62 20.0236
ltoes -0.0475055
61
root -0.414808 16.1712 -4.66623 -157.516 -8.38105 180.722
lowerback -12.6227 0.298707 2.03544
upperback -5.14563 -0.533424 2.38695
thorax 1.69733 -0.537174 1.25319
lowerneck -11.926 1.98036 -0.533068
upperneck 42.5314 -3.62886 0.788427
head 17.8108 -3.36577 -0.799743
rclavicle 7.55382e-015 -2.06736e-014
rhumerus -44.7408 11.1819 -87.2036
rradius 15.153
rwrist 2.23324
rhand 17.9607 2.90817
rfingers 7.12502
rthumb 42.6308 -21.4669
lclavicle 7.55382e-015 -2.06736e-014
lhumerus -52.0123 -13.7852 96.2022
lradius 19.7409
lwrist -0.549701
lhand 16.3113 24.7312
lfingers 7.12502
lthumb 41.0845 49.6207
rfemur -51.6279 3.35437 31.8059
rtibia 46.7611
rfoot -46.4094 -32.471
rtoes 43.7089
lfemur -23.4106 17.271 -28.2605
ltibia 49.2852
lfoot -36.5976 19.6207
ltoes 1.46956
62
root -0.402046 16.1773 -4.69521 -157.596 -8.19858 180.649
lowerback -12.436 0.362252 1.86677
upperback -5.06203 -0.413246 2.45842
thorax 1.68375 -0.468735 1.43945
lowerneck -12.2229 1.95029 -0.623897
upperneck 42.5366 -3.57057 0.762118
head 17.8921 -3.33772 -0.78651
rclavicle -9.93923e-015 -1.98785e-014
rhumerus -44.6601 11.9256 -87.5907
rradius 15.3868
rwrist 1.4353
rhand 18.1418 2.834
rfingers 7.12502
rthumb 42.8003 -21.4821
lclavicle -9.93923e-015 -1.98785e-014
lhumerus -51.6229 -13.842 96.1089
lradius 19.6216
lwrist -0.279816
lhand 16.7546 24.3515
lfingers 7.12502
lthumb 41.5006 49.1067
rfemur -51.3441 3.60832 31.6533
rtibia 46.6544
rfoot -47.275 -32.3257
rtoes 42.8839
lfemur -23.724 18.564 -28.4419
ltibia 50.5385
lfoot -35.053 19.1313
ltoes 2.8018
63
root -0.396637 16.1881 -4.71942 -157.691 -8.18267 180.603
lowerback -11.4559 0.428371 1.93563
upperback -5.74658 -0.341175 2.43458
thorax 0.43872 -0.468853 1.39242
lowerneck -11.4976 2.13439 -0.593188
upperneck 42.8634 -3.61886 0.881323
head 17.8999 -3.42311 -0.762759
rclavicle -3.47873e-015 4.77083e-015
rhumerus -45.7668 11.9757 -87.8732
rradius 15.4586
rwrist 1.51632
rhand 18.4086 3.00519
rfingers 7.12502
rthumb 43.0498 -21.2231
lclavicle -3.47873e-015 4.77083e-015
lhumerus -52.8305 -13.7922 96.2534
lradius 19.6914
lwrist -0.0384984
lhand 16.9826 24.0068
lfingers 7.12502
lthumb 41.7145 48.6918
rfemur -51.0673 3.75594 31.5411
rtibia 46.5574
rfoot -47.2366 -31.8625
rtoes 43.9619
lfemur -24.0231 19.6936 -28.5385
ltibia 51.7355
lfoot -32.6726 19.0393
ltoes 2.12435
64
root -0.4012 16.2004 -4.76792 -158.062 -7.84979 180.714
lowerback -11.4992 0.516678 2.10849
upperback -5.55416 -0.229652 2.45537
thorax 0.661248 -0.405898 1.32836
lowerneck -11.2317 2.22076 -0.310337
upperneck 42.6953 -3.44022 0.694433
head 17.7162 -3.32747 -0.854792
rclavicle -3.97569e-016 -3.97569e-015
rhumerus -45.7146 12.4274 -88.1549
rradius 15.5203
rwrist 1.15598
rhand 18.5119 3.39523
rfingers 7.12502
rthumb 43.1464 -20.7988
lclavicle -3.97569e-016 -3.97569e-015
lhumerus -52.8599 -13.4992 95.937
lradius 19.7652
lwrist 0.197814
lhand 17.1943 24.0589
lfingers 7.12502
lthumb 41.913 48.678
rfemur -50.382 3.59303 31.7685
rtibia 46.469
rfoot -46.5275 -30.8699
rtoes 45.085
lfemur -23.8844 21.1578 -28.4698
ltibia 52.8005
lfoot -29.4905 19.5665
ltoes -2.51371
65
root -0.39794 16.2158 -4.8005 -157.77 -7.7902 180.305
lowerback -11.7314 0.571412 1.82954
upperback -5.50451 -0.129409 2.35911
thorax 0.83762 -0.348372 1.39689
lowerneck -11.5455 2.13233 -0.207407
upperneck 42.6435 -3.41229 0.470775
head 17.7597 -3.29611 -0.96838
rclavicle 1.48095e-014 0
rhumerus -45.5971 13.0005 -88.4985
rradius 15.9485
rwrist -0.0897127
rhand 18.9821 3.10332
rfingers 7.12502
rthumb 43.5857 -20.9324
lclavicle 1.48095e-014 0
lhumerus -52.5728 -13.5596 95.7368
lradius 19.9043
lwrist 0.529258
lhand 17.6229 24.559
lfingers 7.12502
lthumb 42.3146 49.0428
rfemur -50.5306 3.38239 31.4229
rtibia 46.4403
rfoot -46.8887 -32.0141
rtoes 43.5321
lfemur -24.4779 21.8965 -29.0851
ltibia 53.816
lfoot -25.9383 19.7502
ltoes -7.95164
66
root -0.40067 16.226 -4.82434 -157.613 -7.7943 179.878
lowerback -12.6784 0.47357 1.56351
upperback -4.79944 -0.206848 2.32064
thorax 2.08598 -0.347389 1.49465
lowerneck -12.1379 1.98813 -0.161489
upperneck 42.1012 -3.20092 0.26657
head 17.5855 -3.12868 -0.998641
rclavicle -3.8763e-015 -2.38542e-014
rhumerus -44.4789 13.9434 -88.7821
rradius 16.4226
rwrist -1.47247
rhand 19.623 2.52029
rfingers 7.12502
rthumb 44.1837 -21.2937
lclavicle -3.8763e-015 -2.38542e-014
lhumerus -51.3464 -13.5768 95.3872
lradius 19.9729
lwrist 1.03012
lhand 17.9842 25.1752
lfingers 7.12502
lthumb 42.6528 49.5427
rfemur -50.5351 3.24006 30.9455
rtibia 46.3763
rfoot -47.2908 -32.4785
rtoes 42.0063
lfemur -24.7717 22.2686 -29.6032
ltibia 54.7811
lfoot -23.8494 17.5973
ltoes -6.82756
67
root -0.399588 16.2329 -4.8447 -157.638 -7.95123 179.992
lowerback -12.5799 0.437628 1.7775
upperback -4.94305 -0.301715 2.47225
thorax 1.88456 -0.406701 1.51888
lowerneck -11.5744 2.10485 -0.201737
upperneck 41.9078 -2.99674 0.24959
head 17.3231 -3.07104 -0.946337
rclavicle -2.88238e-015 -3.65764e-014
rhumerus -44.7592 14.4288 -88.9788
rradius 16.6441
rwrist -2.17125
rhand 20.0475 2.59301
rfingers 7.12502
rthumb 44.5793 -21.0704
lclavicle -2.88238e-015 -3.65764e-014
lhumerus -51.7494 -13.3996 95.5008
lradius 20.0095
lwrist 1.76864
lhand 17.7217 24.6655
lfingers 7.12502
lthumb 42.4071 49.1177
rfemur -50.3524 3.26071 31.0673
rtibia 46.262
rfoot -46.8965 -32.0209
rtoes 43.9595
lfemur -24.9699 22.556 -29.3899
ltibia 55.7955
lfoot -22.2715 14.7314
ltoes -1.83582
68
root -0.395347 16.2386 -4.86755 -157.714 -8.16434 180.318
lowerback -14.0652 0.305827 2.06397
upperback -3.73639 -0.5264 2.7743
thorax 3.95604 -0.466978 1.63713
lowerneck -12.7293 2.03056 -0.224323
upperneck 41.3904 -2.55755 -0.00553743
head 17.3159 -2.79606 -0.951674
rclavicle 1.96797e-014 3.89618e-014
rhumerus -42.7248 15.038 -88.5843
rradius 16.5919
rwrist -2.85559
rhand 20.5885 2.44114
rfingers 7.12502
rthumb 45.0829 -21.0257
lclavicle 1.96797e-014 3.89618e-014
lhumerus -49.8317 -13.3234 95.2106
lradius 19.9302
lwrist 2.61824
lhand 17.9873 24.3255
lfingers 7.12502
lthumb 42.6557 48.6919
rfemur -50.0959 3.47594 31.3709
rtibia 46.1219
rfoot -48.5394 -32.4053
rtoes 44.5163
lfemur -25.2495 22.937 -28.9051
ltibia 56.78
lfoot -19.4031 13.4191
ltoes -4.3539
69
root -0.392319 16.2439 -4.89341 -157.784 -8.22874 180.366
lowerback -11.9698 0.513863 2.5344
upperback -5.32775 -0.298646 2.56638
thorax 1.15187 -0.438128 1.19355
lowerneck -11.3009 2.3316 -0.0337597
upperneck 42.3042 -2.86795 0.198713
head 17.4795 -3.05403 -1.00114
rclavicle 1.78906e-014 1.59028e-015
rhumerus -45.3197 14.3135 -89.0886
rradius 16.7438
rwrist -2.65293
rhand 20.6011 2.67073
rfingers 7.12502
rthumb 45.0946 -20.7915
lclavicle 1.78906e-014 1.59028e-015
lhumerus -52.7934 -13.3503 95.5017
lradius 20.5339
lwrist 2.97583
lhand 18.5348 24.472
lfingers 7.12502
lthumb 43.1678 48.6584
rfemur -49.8425 3.89712 31.2526
rtibia 46.024
rfoot -48.0354 -31.7904
rtoes 46.761
lfemur -25.3904 23.1985 -28.7406
ltibia 57.6255
lfoot -16.2204 12.2547
ltoes -9.60355
70
root -0.382291 16.2437 -4.91308 -157.788 -8.09546 179.964
lowerback -11.6112 0.428332 2.12239
upperback -5.48897 -0.351883 2.5412
thorax 0.791217 -0.463326 1.39439
lowerneck -11.1458 2.43861 -0.0806
upperneck 42.4386 -2.75206 0.159609
head 17.5163 -3.04513 -0.998953
rclavicle 9.64106e-015 2.46493e-014
rhumerus -45.6994 14.782 -89.3911
rradius 16.9544
rwrist -3.38431
rhand 20.5454 2.83668
rfingers 7.12502
rthumb 45.0428 -20.646
lclavicle 9.64106e-015 2.46493e-014
lhumerus -53.4226 -13.2559 95.6252
lradius 21.0492
lwrist 3.66256
lhand 18.8096 24.4815
lfingers 7.12502
lthumb 43.4246 48.5757
rfemur -49.7231 4.64944 30.4988
rtibia 46.025
rfoot -49.9193 -32.3239
rtoes 44.8014
lfemur -25.4137 23.3898 -29.0725
ltibia 58.2787
lfoot -13.2172 10.6415
ltoes -11.8491
71
root -0.374617 16.2467 -4.93581 -157.815 -8.15187 179.532
lowerback -11.4765 0.289285 1.79738
upperback -5.46703 -0.481099 2.48072
thorax 0.743559 -0.516252 1.49929
lowerneck -11.1773 2.52865 0.068145
upperneck 42.4512 -2.57135 -0.00508288
head 17.5264 -2.96736 -1.0706
rclavicle -1.45113e-014 -1.59028e-015
rhumerus -45.7157 14.8574 -89.4353
rradius 17.1917
rwrist -3.99665
rhand 20.8373 2.65509
rfingers 7.12502
rthumb 45.3143 -20.7196
lclavicle -1.45113e-014 -1.59028e-015
lhumerus -53.4944 -13.403 95.8382
lradius 20.7554
lwrist 4.47078
lhand 18.7882 23.9058
lfingers 7.12502
lthumb 43.4045 48.0072
rfemur -49.5819 5.45804 29.6804
rtibia 46.0711
rfoot -51.0841 -31.9938
rtoes 45.9372
lfemur -25.3792 23.392 -29.3532
ltibia 58.7766
lfoot -10.0027 9.04876
ltoes -16.1481
